<?xml version="1.0" standalone="no"?>
<!DOCTYPE svg PUBLIC "-//W3C//DTD SVG 20010904//EN"
 "http://www.w3.org/TR/2001/REC-SVG-20010904/DTD/svg10.dtd">
<svg version="1.0" xmlns="http://www.w3.org/2000/svg"
 width="982.000000pt" height="982.000000pt" viewBox="0 0 982.000000 982.000000"
 preserveAspectRatio="xMidYMid meet">
<metadata>
Created by potrace 1.14, written by Peter Selinger 2001-2017
</metadata>
<g transform="translate(0.000000,982.000000) scale(0.100000,-0.100000)"
fill="#000000" stroke="none">
<path d="M7320 9813 c-504 -18 -995 -202 -1410 -529 -124 -98 -2138 -2114
-2237 -2240 -525 -665 -669 -1513 -393 -2309 113 -323 340 -683 565 -894 208
-194 509 -198 708 -11 111 104 165 227 166 375 2 141 -47 256 -161 381 -196
215 -307 430 -365 704 -26 129 -24 381 6 520 42 196 123 378 244 545 51 71
1877 1911 2053 2069 270 243 570 359 924 359 377 0 711 -142 977 -416 254
-262 384 -582 384 -947 0 -293 -86 -560 -258 -804 -39 -55 -219 -244 -559
-586 -527 -531 -532 -536 -569 -664 -24 -82 -22 -216 5 -297 38 -115 124 -223
230 -286 155 -93 383 -87 540 14 72 46 1012 987 1112 1113 280 352 455 761
513 1203 20 153 20 445 0 606 -46 372 -172 712 -380 1026 -104 156 -184 252
-328 392 -478 465 -1090 699 -1767 676z"/>
<path d="M5505 6115 c-111 -24 -182 -64 -267 -151 -148 -151 -181 -400 -77
-595 17 -31 67 -97 111 -146 96 -106 155 -187 208 -285 256 -475 217 -1029
-103 -1473 -56 -77 -1949 -1982 -2082 -2094 -269 -228 -554 -334 -895 -334
-377 0 -711 142 -977 416 -253 261 -383 581 -384 944 0 222 47 427 144 619 91
180 142 239 673 774 527 531 532 536 569 664 24 82 22 216 -5 297 -38 115
-124 223 -230 286 -155 94 -382 88 -540 -14 -70 -45 -1032 -1008 -1120 -1121
-280 -360 -447 -757 -505 -1195 -30 -235 -15 -592 35 -816 101 -451 305 -831
620 -1155 386 -397 864 -638 1412 -712 152 -20 467 -20 622 1 442 59 837 228
1196 511 110 87 2145 2122 2234 2234 158 199 320 488 396 705 250 716 156
1499 -254 2125 -142 217 -326 414 -437 471 -109 55 -227 70 -344 44z"/>
</g>
</svg>
